
<svg width="30" height="142" viewBox="0 0 30 142" fill="none" xmlns="http://www.w3.org/2000/svg">
<path d="M29.9465 128.029L15.0069 135.499L0.254139 128.029L0.254139 133.632L15.0069 141.102L29.9465 133.632L29.9465 128.029ZM29.9465 80.2229L15.0069 87.5059L0.254141 80.2229L0.254141 85.8252L15.0069 93.1083L29.9465 85.8252L29.9465 80.2229ZM29.9465 96.0962L15.0069 103.566L0.25414 96.0962L0.25414 101.699L15.0069 109.168L29.9465 101.699L29.9465 96.0962ZM29.9465 112.156L15.0069 119.626L0.25414 112.156L0.25414 117.759L15.0069 125.228L29.9465 117.759L29.9465 112.156ZM29.9465 32.2296L15.0069 39.6994L0.254143 32.2296L0.254143 37.8319L15.0069 45.3017L29.9465 37.8319L29.9465 32.2296ZM15.0069 7.76616L0.254145 0.296385L0.254144 5.89871L15.0069 13.3685L29.9465 5.89872L29.9465 0.296387L15.0069 7.76616ZM29.9465 64.1629L15.0069 71.6327L0.0673857 64.1629L0.0673855 69.7652L15.0069 77.235L29.9465 69.7652L29.9465 64.1629ZM29.9465 16.3563L15.0069 23.6394L0.0673878 16.3563L0.0673876 21.9587L15.0069 29.2418L29.9465 21.9587L29.9465 16.3563ZM29.9465 48.2896L15.0069 55.7594L0.0673864 48.2896L0.0673862 53.892L15.0069 61.3617L29.9465 53.892L29.9465 48.2896Z" fill="url(#paint0_linear_19_327)"/>
<defs>
<linearGradient id="paint0_linear_19_327" x1="29.9539" y1="141.154" x2="29.9539" y2="0.197415" gradientUnits="userSpaceOnUse">
<stop stop-color="#FFD711"/>
<stop offset="0.165" stop-color="#FFD711" stop-opacity="0.2"/>
<stop offset="0.34" stop-color="#FFD711" stop-opacity="0"/>
</linearGradient>
</defs>
</svg>
